<svg width="89" height="15" viewBox="0 0 89 15" fill="none" xmlns="http://www.w3.org/2000/svg">
<path d="M2.77083 5.69998H10.9375M3.82639 2.25V3.15011M9.77083 2.25V3.15M11.5208 4.725V11.175C11.5208 12.0448 10.8244 12.75 9.96528 12.75H3.74306C2.88395 12.75 2.1875 12.0448 2.1875 11.175V4.725C2.1875 3.85515 2.88395 3.15 3.74306 3.15H9.96528C10.8244 3.15 11.5208 3.85515 11.5208 4.725Z" stroke="#3B3B3B" stroke-linecap="round" stroke-linejoin="round"/>
<path opacity="0.5" d="M21.8 11.1C21.4467 11.1 21.1233 11.0233 20.83 10.87C20.5433 10.7167 20.2967 10.49 20.09 10.19C19.8833 9.88333 19.7233 9.5 19.61 9.04C19.4967 8.57333 19.44 8.03 19.44 7.41C19.44 6.79 19.4967 6.25 19.61 5.79C19.7233 5.33 19.8833 4.95 20.09 4.65C20.2967 4.34333 20.5433 4.11667 20.83 3.97C21.1233 3.81667 21.4467 3.74 21.8 3.74C22.1533 3.74 22.4733 3.81333 22.76 3.96C23.0533 4.10667 23.3 4.33333 23.5 4.64C23.7067 4.94 23.8633 5.32 23.97 5.78C24.0833 6.23333 24.14 6.77 24.14 7.39C24.14 8.01 24.0833 8.55333 23.97 9.02C23.8633 9.48 23.7067 9.86667 23.5 10.18C23.3 10.4867 23.0533 10.7167 22.76 10.87C22.4733 11.0233 22.1533 11.1 21.8 11.1ZM21.79 10.57C22.3367 10.57 22.76 10.3233 23.06 9.83C23.36 9.33667 23.51 8.53333 23.51 7.42C23.51 6.86 23.47 6.38333 23.39 5.99C23.3167 5.59 23.2067 5.26333 23.06 5.01C22.92 4.75 22.7433 4.56333 22.53 4.45C22.3167 4.33 22.0733 4.27 21.8 4.27C21.5267 4.27 21.28 4.33 21.06 4.45C20.8467 4.56333 20.6633 4.75 20.51 5.01C20.3633 5.26333 20.25 5.59 20.17 5.99C20.0967 6.38333 20.06 6.86 20.06 7.42C20.06 8.53333 20.21 9.33667 20.51 9.83C20.8167 10.3233 21.2433 10.57 21.79 10.57ZM27.6266 11V4.6L25.4566 6.22V5.54L27.7466 3.84H28.2466V11H27.6266ZM31.4033 11.05C31.2499 11.05 31.1266 11.0033 31.0333 10.91C30.9466 10.81 30.9033 10.6933 30.9033 10.56C30.9033 10.4133 30.9466 10.2933 31.0333 10.2C31.1266 10.1067 31.2499 10.06 31.4033 10.06C31.5499 10.06 31.6666 10.1067 31.7533 10.2C31.8466 10.2933 31.8933 10.4133 31.8933 10.56C31.8933 10.6933 31.8466 10.81 31.7533 10.91C31.6666 11.0033 31.5499 11.05 31.4033 11.05ZM35.4816 11.1C35.1283 11.1 34.805 11.0233 34.5116 10.87C34.225 10.7167 33.9783 10.49 33.7716 10.19C33.565 9.88333 33.405 9.5 33.2916 9.04C33.1783 8.57333 33.1216 8.03 33.1216 7.41C33.1216 6.79 33.1783 6.25 33.2916 5.79C33.405 5.33 33.565 4.95 33.7716 4.65C33.9783 4.34333 34.225 4.11667 34.5116 3.97C34.805 3.81667 35.1283 3.74 35.4816 3.74C35.835 3.74 36.155 3.81333 36.4416 3.96C36.735 4.10667 36.9816 4.33333 37.1816 4.64C37.3883 4.94 37.545 5.32 37.6516 5.78C37.765 6.23333 37.8216 6.77 37.8216 7.39C37.8216 8.01 37.765 8.55333 37.6516 9.02C37.545 9.48 37.3883 9.86667 37.1816 10.18C36.9816 10.4867 36.735 10.7167 36.4416 10.87C36.155 11.0233 35.835 11.1 35.4816 11.1ZM35.4716 10.57C36.0183 10.57 36.4416 10.3233 36.7416 9.83C37.0416 9.33667 37.1916 8.53333 37.1916 7.42C37.1916 6.86 37.1516 6.38333 37.0716 5.99C36.9983 5.59 36.8883 5.26333 36.7416 5.01C36.6016 4.75 36.425 4.56333 36.2116 4.45C35.9983 4.33 35.755 4.27 35.4816 4.27C35.2083 4.27 34.9616 4.33 34.7416 4.45C34.5283 4.56333 34.345 4.75 34.1916 5.01C34.045 5.26333 33.9316 5.59 33.8516 5.99C33.7783 6.38333 33.7416 6.86 33.7416 7.42C33.7416 8.53333 33.8916 9.33667 34.1916 9.83C34.4983 10.3233 34.925 10.57 35.4716 10.57ZM41.3083 11V4.6L39.1383 6.22V5.54L41.4283 3.84H41.9283V11H41.3083ZM45.0849 11.05C44.9316 11.05 44.8083 11.0033 44.7149 10.91C44.6283 10.81 44.5849 10.6933 44.5849 10.56C44.5849 10.4133 44.6283 10.2933 44.7149 10.2C44.8083 10.1067 44.9316 10.06 45.0849 10.06C45.2316 10.06 45.3483 10.1067 45.4349 10.2C45.5283 10.2933 45.5749 10.4133 45.5749 10.56C45.5749 10.6933 45.5283 10.81 45.4349 10.91C45.3483 11.0033 45.2316 11.05 45.0849 11.05ZM46.9233 11V10.34C47.6366 9.77333 48.2333 9.28 48.7133 8.86C49.1999 8.43333 49.5899 8.05 49.8833 7.71C50.1766 7.37 50.3866 7.05333 50.5133 6.76C50.6399 6.46667 50.7033 6.16667 50.7033 5.86C50.7033 5.64 50.6666 5.43333 50.5933 5.24C50.5266 5.04667 50.4199 4.88 50.2733 4.74C50.1333 4.6 49.9499 4.49 49.7233 4.41C49.4966 4.32333 49.2299 4.28 48.9233 4.28C48.5766 4.28 48.2533 4.33667 47.9533 4.45C47.6599 4.56333 47.4066 4.70333 47.1933 4.87L47.1233 4.26C47.3166 4.11333 47.5699 3.99 47.8833 3.89C48.1966 3.79 48.5599 3.74 48.9733 3.74C49.3733 3.74 49.7199 3.79333 50.0133 3.9C50.3066 4 50.5499 4.14333 50.7433 4.33C50.9366 4.51667 51.0799 4.73667 51.1733 4.99C51.2733 5.24333 51.3233 5.52 51.3233 5.82C51.3233 6.18 51.2533 6.52667 51.1133 6.86C50.9733 7.19333 50.7533 7.54 50.4533 7.9C50.1533 8.25333 49.7666 8.63667 49.2933 9.05C48.8199 9.45667 48.2499 9.91667 47.5833 10.43H51.3933V11H46.9233ZM54.7199 11.1C54.3666 11.1 54.0433 11.0233 53.7499 10.87C53.4633 10.7167 53.2166 10.49 53.0099 10.19C52.8033 9.88333 52.6433 9.5 52.5299 9.04C52.4166 8.57333 52.3599 8.03 52.3599 7.41C52.3599 6.79 52.4166 6.25 52.5299 5.79C52.6433 5.33 52.8033 4.95 53.0099 4.65C53.2166 4.34333 53.4633 4.11667 53.7499 3.97C54.0433 3.81667 54.3666 3.74 54.7199 3.74C55.0733 3.74 55.3933 3.81333 55.6799 3.96C55.9733 4.10667 56.2199 4.33333 56.4199 4.64C56.6266 4.94 56.7833 5.32 56.8899 5.78C57.0033 6.23333 57.0599 6.77 57.0599 7.39C57.0599 8.01 57.0033 8.55333 56.8899 9.02C56.7833 9.48 56.6266 9.86667 56.4199 10.18C56.2199 10.4867 55.9733 10.7167 55.6799 10.87C55.3933 11.0233 55.0733 11.1 54.7199 11.1ZM54.7099 10.57C55.2566 10.57 55.6799 10.3233 55.9799 9.83C56.2799 9.33667 56.4299 8.53333 56.4299 7.42C56.4299 6.86 56.3899 6.38333 56.3099 5.99C56.2366 5.59 56.1266 5.26333 55.9799 5.01C55.8399 4.75 55.6633 4.56333 55.4499 4.45C55.2366 4.33 54.9933 4.27 54.7199 4.27C54.4466 4.27 54.1999 4.33 53.9799 4.45C53.7666 4.56333 53.5833 4.75 53.4299 5.01C53.2833 5.26333 53.1699 5.59 53.0899 5.99C53.0166 6.38333 52.9799 6.86 52.9799 7.42C52.9799 8.53333 53.1299 9.33667 53.4299 9.83C53.7366 10.3233 54.1633 10.57 54.7099 10.57ZM58.0366 11V10.34C58.7499 9.77333 59.3466 9.28 59.8266 8.86C60.3132 8.43333 60.7032 8.05 60.9966 7.71C61.2899 7.37 61.4999 7.05333 61.6266 6.76C61.7532 6.46667 61.8166 6.16667 61.8166 5.86C61.8166 5.64 61.7799 5.43333 61.7066 5.24C61.6399 5.04667 61.5332 4.88 61.3866 4.74C61.2466 4.6 61.0632 4.49 60.8366 4.41C60.6099 4.32333 60.3432 4.28 60.0366 4.28C59.6899 4.28 59.3666 4.33667 59.0666 4.45C58.7732 4.56333 58.5199 4.70333 58.3066 4.87L58.2366 4.26C58.4299 4.11333 58.6832 3.99 58.9966 3.89C59.3099 3.79 59.6732 3.74 60.0866 3.74C60.4866 3.74 60.8332 3.79333 61.1266 3.9C61.4199 4 61.6632 4.14333 61.8566 4.33C62.0499 4.51667 62.1932 4.73667 62.2866 4.99C62.3866 5.24333 62.4366 5.52 62.4366 5.82C62.4366 6.18 62.3666 6.52667 62.2266 6.86C62.0866 7.19333 61.8666 7.54 61.5666 7.9C61.2666 8.25333 60.8799 8.63667 60.4066 9.05C59.9332 9.45667 59.3632 9.91667 58.6966 10.43H62.5066V11H58.0366ZM65.4532 11.1C65.0799 11.1 64.7232 11.0567 64.3832 10.97C64.0432 10.8833 63.7832 10.7733 63.6032 10.64L63.7532 10.05C63.9465 10.1833 64.1865 10.3033 64.4732 10.41C64.7599 10.51 65.0865 10.56 65.4532 10.56C65.7732 10.56 66.0499 10.5133 66.2832 10.42C66.5232 10.3267 66.7232 10.2 66.8832 10.04C67.0432 9.87333 67.1632 9.68 67.2432 9.46C67.3232 9.23333 67.3632 8.99 67.3632 8.73C67.3632 8.44333 67.3199 8.19667 67.2332 7.99C67.1532 7.77667 67.0399 7.60333 66.8932 7.47C66.7465 7.33667 66.5699 7.24 66.3632 7.18C66.1632 7.11333 65.9432 7.08 65.7032 7.08C65.3632 7.08 65.0832 7.13 64.8632 7.23C64.6432 7.32333 64.4732 7.42 64.3532 7.52H63.8832V3.84H67.6632V4.4H64.4332V6.93C64.5732 6.83667 64.7532 6.75 64.9732 6.67C65.1932 6.59 65.4632 6.55 65.7832 6.55C66.0899 6.55 66.3765 6.59667 66.6432 6.69C66.9099 6.77667 67.1432 6.91 67.3432 7.09C67.5432 7.27 67.6999 7.49667 67.8132 7.77C67.9265 8.04333 67.9832 8.36333 67.9832 8.73C67.9832 9.07667 67.9265 9.39667 67.8132 9.69C67.7065 9.97667 67.5432 10.2267 67.3232 10.44C67.1099 10.6467 66.8465 10.81 66.5332 10.93C66.2199 11.0433 65.8599 11.1 65.4532 11.1Z" fill="#3B3B3B"/>
</svg>
