<svg width="15" height="15" viewBox="0 0 15 15" fill="none" xmlns="http://www.w3.org/2000/svg">
<path fill-rule="evenodd" clip-rule="evenodd" d="M2.37934 3.87924C2.94192 3.31683 3.70484 3.00088 4.50034 3.00088C5.29583 3.00088 6.05875 3.31683 6.62133 3.87924L7.50033 4.75749L8.37933 3.87924C8.65608 3.59271 8.98711 3.36417 9.35312 3.20694C9.71913 3.04971 10.1128 2.96695 10.5111 2.96349C10.9095 2.96003 11.3045 3.03594 11.6732 3.18678C12.0419 3.33762 12.3768 3.56038 12.6585 3.84206C12.9402 4.12374 13.163 4.45869 13.3138 4.82738C13.4646 5.19607 13.5405 5.59111 13.5371 5.98945C13.5336 6.38778 13.4509 6.78144 13.2936 7.14746C13.1364 7.51347 12.9079 7.8445 12.6213 8.12124L7.50033 13.243L2.37934 8.12124C1.81692 7.55866 1.50098 6.79574 1.50098 6.00024C1.50098 5.20475 1.81692 4.44183 2.37934 3.87924V3.87924Z" stroke="#F24C4C" stroke-linejoin="round"/>
<circle cx="5" cy="6" r="3" fill="#F24C4C"/>
<ellipse cx="10.5" cy="6" rx="3.5" ry="3" fill="#F24C4C"/>
<path d="M8.17855 12.3732C7.79541 12.7271 7.20459 12.7271 6.82145 12.3732L2.88252 8.73455C2.21398 8.11698 2.65094 7 3.56107 7L11.4389 7C12.3491 7 12.786 8.11698 12.1175 8.73455L8.17855 12.3732Z" fill="#F24C4C"/>
</svg>
