<svg width="14" height="15" viewBox="0 0 14 15" fill="none" xmlns="http://www.w3.org/2000/svg">
<path d="M6.9999 8.8999L6.67181 9.27721C6.85995 9.4408 7.13986 9.4408 7.32799 9.27721L6.9999 8.8999ZM3.98649 9.31808C4.25213 9.24265 4.40632 8.96615 4.33088 8.70051C4.25545 8.43487 3.97895 8.28068 3.71331 8.35612L3.98649 9.31808ZM10.2865 8.35612C10.0209 8.28068 9.74436 8.43487 9.66892 8.70051C9.59348 8.96615 9.74767 9.24265 10.0133 9.31808L10.2865 8.35612ZM9.2999 4.63903C9.2999 4.97654 9.16724 5.38528 8.92267 5.8372C8.68172 6.28243 8.35415 6.7296 8.01636 7.13347C7.67997 7.53568 7.34213 7.88467 7.08776 8.13352C6.96087 8.25764 6.85551 8.35612 6.78246 8.42304C6.74595 8.45649 6.71757 8.48201 6.69866 8.49886C6.68921 8.50728 6.68214 8.51353 6.6776 8.51752C6.67534 8.51952 6.67371 8.52094 6.67274 8.52179C6.67225 8.52222 6.67193 8.5225 6.67177 8.52263C6.6717 8.5227 6.67166 8.52273 6.67167 8.52273C6.67167 8.52272 6.67171 8.52269 6.67171 8.52269C6.67176 8.52265 6.67181 8.5226 6.9999 8.8999C7.32799 9.27721 7.32807 9.27714 7.32816 9.27706C7.32821 9.27702 7.32831 9.27693 7.32839 9.27686C7.32857 9.2767 7.32879 9.27651 7.32905 9.27628C7.32958 9.27583 7.33027 9.27522 7.33113 9.27447C7.33285 9.27296 7.33524 9.27087 7.33827 9.2682C7.34433 9.26287 7.35298 9.25523 7.36403 9.24537C7.38615 9.22566 7.41792 9.19709 7.45797 9.16039C7.53805 9.08703 7.65143 8.98102 7.78705 8.84835C8.05767 8.58361 8.41984 8.20977 8.78344 7.77503C9.14566 7.34194 9.51809 6.83803 9.80214 6.31315C10.0826 5.79496 10.2999 5.21457 10.2999 4.63903H9.2999ZM6.9999 8.8999C7.32799 8.5226 7.32805 8.52265 7.3281 8.52269C7.3281 8.52269 7.32814 8.52272 7.32814 8.52273C7.32815 8.52273 7.32811 8.5227 7.32803 8.52263C7.32788 8.5225 7.32756 8.52222 7.32707 8.52179C7.3261 8.52094 7.32447 8.51952 7.3222 8.51752C7.31767 8.51353 7.31059 8.50728 7.30114 8.49886C7.28224 8.48201 7.25386 8.45649 7.21735 8.42304C7.1443 8.35612 7.03893 8.25764 6.91205 8.13352C6.65767 7.88467 6.31984 7.53568 5.98344 7.13347C5.64566 6.7296 5.31809 6.28243 5.07714 5.8372C4.83257 5.38528 4.6999 4.97654 4.6999 4.63903H3.6999C3.6999 5.21457 3.91724 5.79496 4.19767 6.31315C4.48172 6.83803 4.85415 7.34194 5.21636 7.77503C5.57997 8.20977 5.94213 8.58361 6.21276 8.84835C6.34837 8.98102 6.46176 9.08703 6.54183 9.16039C6.58189 9.19709 6.61366 9.22566 6.63577 9.24537C6.64683 9.25523 6.65548 9.26287 6.66154 9.2682C6.66457 9.27087 6.66696 9.27296 6.66868 9.27447C6.66954 9.27522 6.67023 9.27583 6.67075 9.27628C6.67101 9.27651 6.67123 9.2767 6.67141 9.27686C6.6715 9.27693 6.6716 9.27702 6.67164 9.27706C6.67173 9.27714 6.67181 9.27721 6.9999 8.8999ZM4.6999 4.63903C4.6999 3.4127 5.71923 2.3999 6.9999 2.3999V1.3999C5.18778 1.3999 3.6999 2.83981 3.6999 4.63903H4.6999ZM6.9999 2.3999C8.28057 2.3999 9.2999 3.4127 9.2999 4.63903H10.2999C10.2999 2.83981 8.81203 1.3999 6.9999 1.3999V2.3999ZM12.0999 10.7666C12.0999 10.9146 12.03 11.1008 11.8089 11.3186C11.5861 11.5382 11.2379 11.7589 10.7674 11.9549C9.8285 12.3462 8.49678 12.5999 6.9999 12.5999V13.5999C8.59581 13.5999 10.0641 13.3313 11.152 12.878C11.6949 12.6518 12.1668 12.3698 12.5107 12.031C12.8564 11.6905 13.0999 11.2629 13.0999 10.7666H12.0999ZM6.9999 12.5999C5.50302 12.5999 4.1713 12.3462 3.23241 11.9549C2.76187 11.7589 2.41373 11.5382 2.19087 11.3186C1.96977 11.1008 1.8999 10.9146 1.8999 10.7666H0.899902C0.899902 11.2629 1.14344 11.6905 1.48909 12.031C1.83297 12.3698 2.30493 12.6518 2.8478 12.878C3.93571 13.3313 5.40399 13.5999 6.9999 13.5999V12.5999ZM1.8999 10.7666C1.8999 10.5838 2.0101 10.3363 2.37555 10.0546C2.73598 9.77678 3.28357 9.5177 3.98649 9.31808L3.71331 8.35612C2.9373 8.57649 2.25989 8.88116 1.76505 9.26258C1.27523 9.64013 0.899902 10.1474 0.899902 10.7666H1.8999ZM10.0133 9.31808C10.7162 9.5177 11.2638 9.77678 11.6243 10.0546C11.9897 10.3363 12.0999 10.5838 12.0999 10.7666H13.0999C13.0999 10.1474 12.7246 9.64013 12.2347 9.26258C11.7399 8.88116 11.0625 8.5765 10.2865 8.35612L10.0133 9.31808Z" fill="#3B3B3B"/>
</svg>
