<svg width="18" height="18" viewBox="0 0 18 18" fill="none" xmlns="http://www.w3.org/2000/svg">
<circle cx="9" cy="9" r="9" fill="#536AD4"/>
<path d="M10.3758 5.24463L12.8985 5.24463M12.8985 5.24463L12.8996 7.47375M12.8985 5.24463L10.0325 8.1106M12.3663 12.7185C12.3663 12.7185 11.82 13.2551 11.6861 13.4124C11.4681 13.6451 11.2111 13.755 10.8742 13.755C10.8419 13.755 10.8073 13.755 10.7749 13.7529C10.1336 13.7119 9.53764 13.462 9.09066 13.2486C7.86849 12.6582 6.79531 11.8199 5.90352 10.7576C5.16719 9.8719 4.67487 9.05304 4.34881 8.17384C4.148 7.63727 4.07458 7.21922 4.10697 6.82487C4.12856 6.57275 4.22573 6.36372 4.40495 6.18487L5.14128 5.45005C5.24709 5.35092 5.35937 5.29705 5.46949 5.29705C5.60553 5.29705 5.71566 5.37894 5.78475 5.44789C5.78691 5.45005 5.78907 5.4522 5.79123 5.45436C5.92295 5.57719 6.04819 5.70433 6.17991 5.84008C6.24685 5.90904 6.31594 5.978 6.38504 6.04911L6.97453 6.6374C7.20342 6.86582 7.20342 7.077 6.97453 7.30541C6.91191 7.36791 6.85145 7.4304 6.78883 7.49074C6.60745 7.67606 6.74994 7.53386 6.56208 7.70194C6.55776 7.70625 6.55344 7.70841 6.55128 7.71272C6.36558 7.89804 6.40013 8.07905 6.439 8.20188C6.44116 8.20834 6.44331 8.21481 6.44547 8.22127C6.59879 8.59192 6.81472 8.94101 7.14293 9.3569L7.14509 9.35906C7.74106 10.0917 8.36942 10.6628 9.06256 11.1002C9.15109 11.1562 9.24178 11.2015 9.32815 11.2446C9.40589 11.2834 9.4793 11.32 9.54192 11.3588C9.55056 11.3631 9.5592 11.3696 9.56784 11.3739C9.64125 11.4105 9.71035 11.4278 9.78161 11.4278C9.96083 11.4278 10.0731 11.3157 10.1098 11.2791L10.5331 10.8567C10.6065 10.7834 10.7231 10.6951 10.8591 10.6951C10.993 10.6951 11.1031 10.7791 11.1701 10.8524C11.1722 10.8545 11.1722 10.8545 11.1744 10.8567L12.3642 12.044C12.5866 12.2638 12.3663 12.7185 12.3663 12.7185Z" stroke="white" stroke-linecap="round" stroke-linejoin="round"/>
</svg>
